<svg xmlns="http://www.w3.org/2000/svg" width="45.547" height="39.391" viewBox="0 0 45.547 39.391">
    <defs>
        <style>.a{fill:#009a44;}</style>
    </defs>
    <g transform="translate(642.97 -1756.32)">
        <path class="a" d="M-641.778,1785.963c-.209.494.121,1.054-.235,1.52-.082.108-.055.259.1.229.328-.063.137.113.145.235a4.08,4.08,0,0,1-.311,1.614c.34-.221.309-.45.369-.64a4.288,4.288,0,0,1,.715-1.593,31.134,31.134,0,0,0,1.863-2.5,13.964,13.964,0,0,1,5.661-4.525,33.837,33.837,0,0,1,5.951-2.223c2.412-.605,4.848-1.1,7.291-1.557a81.083,81.083,0,0,0,8.128-2c3.025-.891,5.972-2.013,8.918-3.133a1.983,1.983,0,0,0,.535-.312,10.58,10.58,0,0,1,1.857-1.543.558.558,0,0,0,.3-.479,21.617,21.617,0,0,0-2.534,1.145c-.885.332-1.76.689-2.634,1.048s-1.712.726-2.571,1.084-1.8.447-2.682.746c-.9.3-1.807.594-2.723.843-.865.235-1.746.411-2.619.612l-.053-.218a72.444,72.444,0,0,0,8.8-2.89c-.526-.169-.933.309-1.458.247.173-.437.723-.193.892-.577-.094-.168-.33.022-.434-.173.186-.361.592-.279.885-.419,2.786-1.331,5.644-2.529,8.067-4.509a5.976,5.976,0,0,0,2.129-2.657,10.157,10.157,0,0,1-.731.916c-.743.643-1.521,1.247-2.312,1.831-.207.153-.514.612-.776-.013-.047-.113-.235.019-.349.08-1.049.563-2.057,1.2-3.107,1.76a36.962,36.962,0,0,1-5.049,2.268c-1.359.484-2.733.923-4.1,1.391a1.821,1.821,0,0,1-.753.089c.445-.327,1-.232,1.317-.633-.587-.133-1.059.415-1.668.29a21.242,21.242,0,0,1,3-1.1,35.118,35.118,0,0,0,9.292-4.583,14.846,14.846,0,0,0,4.17-4.421,8.6,8.6,0,0,0,.85-2.346,14.006,14.006,0,0,1-3.631,4.817,18.384,18.384,0,0,1-5.165,3.238,1.174,1.174,0,0,1,.654-.6q.548-.305,1.089-.623c.112-.066.277-.149.2-.3-.1-.194-.254-.056-.387.009-.75.365-1.439.838-2.171,1.237a60.8,60.8,0,0,1-7.083,2.963.469.469,0,0,1-.5-.035c.227-.439.7-.3,1.038-.451,1.551-.676,3.166-1.192,4.7-1.922a28.093,28.093,0,0,0,5.736-3.449,17.572,17.572,0,0,0,4.092-4.692c.283-.477.622-1,.134-1.577-.114-.135,0-.318.068-.48.076-.18.262-.332.16-.682-.627.787-.822,1.725-1.4,2.454s-1.209,1.4-1.8,2.109a4.448,4.448,0,0,1-2.186,1.694l1.7-1.624-.123-.149c-.637.78-1.627.989-2.379,1.62a26.333,26.333,0,0,1-5.145,3.058,22.922,22.922,0,0,1-3.179,1.382,32.753,32.753,0,0,1-3.2,1.287,30.928,30.928,0,0,0-3.5,1.186,39.382,39.382,0,0,1-3.733,1.269,48.789,48.789,0,0,0-5.611,1.756,41.469,41.469,0,0,0-5.2,2.416,16.811,16.811,0,0,0-6.96,6.763,11.217,11.217,0,0,0-1.379,4.588,10.278,10.278,0,0,0-.162,1.631C-642.425,1787.241-642.5,1786.358-641.778,1785.963Z" transform="translate(0)"/>
        <path class="a" d="M-383.794,1884.673l-.005.006.012,0Z" transform="translate(-229.483 -113.65)"/>
        <path class="a" d="M-597.595,1933.675l.015-.009a16.043,16.043,0,0,1-2.545,2.178c-1.188.881-2.475,1.605-3.738,2.369a18.294,18.294,0,0,1-4.406,1.735,29.5,29.5,0,0,1-5.166.686,21.676,21.676,0,0,1-2.558-.065c-2.4-.032-4.793-.174-7.189-.25-1-.031-2-.005-3-.005v-.2c1.113,0,2.226-.02,3.338,0,2.052.044,4.1.118,6.155.173a34.9,34.9,0,0,0,6.422-.36,18.168,18.168,0,0,0,3.857-1.1c.155-.061.3-.1.2-.308s-.238-.12-.382-.054a16.692,16.692,0,0,1-2.2.707,28.3,28.3,0,0,1-6.883.786,27.438,27.438,0,0,1-3.387-.087c-1.893-.143-3.8.066-5.751-.195.828-.047,1.6-.118,2.366-.129,2.645-.038,5.289.045,7.935-.055a27.945,27.945,0,0,0,6.519-.916,17.541,17.541,0,0,0,4.738-2.286,23.443,23.443,0,0,0,3.941-3.059,8.417,8.417,0,0,0,1.649-1.777,6.932,6.932,0,0,0-.59.511c-.113.1-.25.237-.4.124-.171-.13.191-.215.037-.414a25.374,25.374,0,0,1-2.592,2.12,1.466,1.466,0,0,1,.164-.2,22.939,22.939,0,0,0,2.3-2.2c.082-.1.3-.2.163-.345s-.28.02-.4.137c-.4.383-.819.74-1.2,1.138a18.164,18.164,0,0,1-3.292,2.407,6.291,6.291,0,0,1-2.937,1.287,24.543,24.543,0,0,0,5.293-3.634c-.219-.078-.282.043-.366.105a20.321,20.321,0,0,1-2.111,1.55,7.354,7.354,0,0,1-2.958,1.328c-1.132.1-2.152.78-3.287,1.014-.573.118-1.156.2-1.719.338a36.293,36.293,0,0,1-4.163.634c-1.85.227-3.717.183-5.572.38a54.812,54.812,0,0,0-7.7,1.131,24,24,0,0,0-4.571,1.713,16.163,16.163,0,0,0-5.853,4.78,8.926,8.926,0,0,0-1.718,3.567c.307-.109.328-.472.594-.548.146-.042.484-.179.383.135-.194.6.176,1.312-.383,1.863.488-.363.977-.678,1.446-1.01,1.214-.858,2.262-1.962,3.727-2.439a4.915,4.915,0,0,0,.791-.3,11.527,11.527,0,0,1,4.217-1.025c3.856-.432,7.6.547,11.361,1.219a22.2,22.2,0,0,0,5.909.269,11.943,11.943,0,0,0,5.11-1.791,32.546,32.546,0,0,0,3.412-2.383c-.231-.091-.346.068-.492.138a19.631,19.631,0,0,1-2.164,1.191,20.747,20.747,0,0,1-4.342,1.3,33.472,33.472,0,0,1-5.7-.006c-.254-.016-.408-.1-.512-.441,2.967.114,5.89.368,8.688-.728a26.915,26.915,0,0,1-6.009.426c2.246-.314,4.538-.324,6.673-1.208a24.525,24.525,0,0,1-4.745.483.389.389,0,0,1,.366-.2,15.016,15.016,0,0,0,3.772-.628,25.723,25.723,0,0,0,3.631-1.291,35.366,35.366,0,0,0,4.235-2.339,21.6,21.6,0,0,0,3.176-2.258l.751-.565-.074-.093-.815.628c-1.5,1.072-3.1,1.982-4.775,2.943,0-.574.544-.463.645-.911-.888.5-1.776.824-2.628,1.224a20.069,20.069,0,0,1-3.519,1.287,21.613,21.613,0,0,1-6.33.657c-2.139-.091-4.273-.279-6.4-.515-1.547-.171-3.113-.175-4.671-.233-.7-.026-1.408,0-2.113,0,.193-.273.406-.232.61-.24a27.709,27.709,0,0,1,2.792.083c1.725.113,3.459.135,5.175.325a45.851,45.851,0,0,0,6.215.175.632.632,0,0,0,.615-.278c-4.208.3-8.21-.556-12.26-.547a19.712,19.712,0,0,1,4.757.093c1.441.086,2.884.121,4.325.254.935.086,1.893-.119,2.839-.108a16.638,16.638,0,0,0,6.282-1.245,26.153,26.153,0,0,0,7.484-4.557.835.835,0,0,0,.116-.122,16.075,16.075,0,0,1,1.754-1.792l-.013.009.135-.127-.007,0-.007,0,.1-.143c.1-.152.32-.238.311-.5-.287.057-.419.275-.612.4Z" transform="translate(-1.63 -154.662)"/>
        <path class="a" d="M-433.539,1946.637c-.057-.008-.176.052-.178.086,0,.012,0,.024,0,.036a.377.377,0,0,1,.357,0A.2.2,0,0,0-433.539,1946.637Z" transform="translate(-185.281 -168.515)"/>
        <path class="a" d="M-428.623,1942.7a1.266,1.266,0,0,0-.6-1.365,2,2,0,0,1-.075,2.017c-.085.145-.181.4-.406.33-.192-.058-.12-.295-.133-.456-.048-.607-.063-1.218-.133-1.822-.094-.809-.111-.807-.692-.749a29.018,29.018,0,0,0,.563,3.173,1.619,1.619,0,0,1-1.217-1.872c.015-.4,0-.382-.14-.473a.635.635,0,0,0-.066-.038.168.168,0,0,1,.006.054,1.68,1.68,0,0,1-.043.282,1.808,1.808,0,0,0,.933,2.264c.331.169.148.307.015.413a7.2,7.2,0,0,0,1.706-.249c-.425,0-.55-.158-.249-.457A1.987,1.987,0,0,0-428.623,1942.7Z" transform="translate(-187.124 -163.197)"/>
        <path class="a" d="M-438.175,1950.038c-.5-.694-.168-1.524-.111-2.333a.959.959,0,0,0-.233.181A1.4,1.4,0,0,0-438.175,1950.038Z" transform="translate(-180.714 -169.462)"/>
        <path class="a" d="M-300,2001.877c-1.3.43-2.2,1.46-3.309,2.176C-302.109,2003.472-301.155,2002.521-300,2001.877Z" transform="translate(-300.755 -217.428)"/>
        <path class="a" d="M-406.765,1945.6a1.3,1.3,0,0,0,.1-.267,1.34,1.34,0,0,0-1.105-1.632,2.721,2.721,0,0,1,.78,1.714c-.034.231-.224.43-.145.687a.222.222,0,0,1,0,.071A1.485,1.485,0,0,0-406.765,1945.6Z" transform="translate(-208.253 -165.918)"/>
        <path class="a" d="M-266.361,1849.284l.114.181c.3-.421.787-.555,1.169-.852l-.089-.163Z" transform="translate(-333.469 -81.577)"/>
        <path class="a" d="M-285.022,1787.922h0a.463.463,0,0,0-.409.48A.575.575,0,0,0-285.022,1787.922Z" transform="translate(-316.582 -27.982)"/>
        <path class="a" d="M-281.548,1783.875l-.017-.017c-.218.079-.368.206-.333.466h0A.424.424,0,0,0-281.548,1783.875Z" transform="translate(-319.706 -24.383)"/>
        <path class="a" d="M-278.6,1780.971c-.237-.021-.329.115-.351.329l.017.017C-278.688,1781.328-278.629,1781.163-278.6,1780.971Z" transform="translate(-322.322 -21.825)"/>
        <path class="a" d="M-275.885,1780.938v.006h.009Z" transform="translate(-325.035 -21.798)"/>
        <path class="a" d="M-379.492,1881.758a.225.225,0,0,0,.375-.063.1.1,0,0,0-.028-.09A.22.22,0,0,0-379.492,1881.758Z" transform="translate(-233.297 -110.9)"/>
        <path class="a" d="M-275.877,1780.913l.008.006v-.009Z" transform="translate(-325.043 -21.773)"/>
        <path class="a" d="M-275.689,1778.395c0-.022-.045-.073-.055-.069-.146.052-.153.169-.135.3A.281.281,0,0,0-275.689,1778.395Z" transform="translate(-325.035 -19.485)"/>
        <path class="a" d="M-383.751,1884.673l.007.008,0-.007Z" transform="translate(-229.526 -113.65)"/>
        <path class="a" d="M-383.39,1883.645c0-.006-.015-.038-.028-.042a.169.169,0,0,0-.246.108C-383.566,1883.717-383.461,1883.75-383.39,1883.645Z" transform="translate(-229.603 -112.687)"/>
        <path class="a" d="M-287.792,1793.395c0-.026-.032-.055-.051-.085-.023.031-.057.057-.061.088s.033.051.051.077C-287.831,1793.448-287.795,1793.423-287.792,1793.395Z" transform="translate(-314.393 -32.753)"/>
    </g>
</svg>