<svg xmlns="http://www.w3.org/2000/svg" width="49.546" height="49.546" viewBox="0 0 49.546 49.546" >
  <g id="_17507" data-name=" 17507" transform="translate(571.06 -1360.509)">
    <path id="Path_2508" data-name="Path 2508" d="M-546.286,1360.509a24.773,24.773,0,0,0-24.774,24.772,24.773,24.773,0,0,0,24.772,24.774,24.772,24.772,0,0,0,24.774-24.772h0A24.8,24.8,0,0,0-546.286,1360.509Zm10.5,29.381a1.256,1.256,0,0,1-1.777,0h0l-8.719-8.72-8.719,8.72a1.259,1.259,0,0,1-1.78-.034,1.259,1.259,0,0,1,0-1.746l9.609-9.609a1.257,1.257,0,0,1,1.777,0h0l9.61,9.609a1.256,1.256,0,0,1,0,1.778Z" fill="#009A44"/>
  </g>
</svg>
